<svg xmlns="http://www.w3.org/2000/svg" width="22" height="22" viewBox="0 0 22 22"><defs><style>.a{fill:none;}.b{fill:#fbbd0e;}</style></defs><path class="a" d="M0,0H22V22H0Z"/><path class="b" d="M15.91,14.661a6.417,6.417,0,1,0-9.321,0,5.5,5.5,0,0,1,9.321,0Zm-7.974,1.35,3.314,3.313,3.314-3.313a3.667,3.667,0,0,0-6.628,0Zm3.314,5.906L5.416,16.084a8.25,8.25,0,1,1,11.667,0Zm0-12.584a.917.917,0,1,0-.917-.917A.917.917,0,0,0,11.25,9.333Zm0,1.833A2.75,2.75,0,1,1,14,8.417,2.75,2.75,0,0,1,11.25,11.167Z" transform="translate(-0.25 -0.167)"/></svg>