<svg xmlns="http://www.w3.org/2000/svg" width="22" height="22" viewBox="0 0 22 22"><defs><style>.a{fill:none;}.b{fill:#9f9f9f;}</style></defs><path class="a" d="M0,0H22V22H0Z"/><path class="b" d="M15.68,4a5.516,5.516,0,0,1,5.5,5.527v3.685a5.516,5.516,0,0,1-5.5,5.527H6.5A5.516,5.516,0,0,1,1,13.212V9.527A5.516,5.516,0,0,1,6.5,4Zm0,1.842H6.5a3.676,3.676,0,0,0-3.665,3.5l0,.184v3.685a3.678,3.678,0,0,0,3.486,3.68l.183,0H15.68a3.676,3.676,0,0,0,3.665-3.5l0-.184V9.527a3.678,3.678,0,0,0-3.486-3.68ZM9.257,8.606v1.842h1.835v1.842H9.256v1.842H7.422V12.291H5.587V10.448H7.422V8.606Zm7.34,3.685v1.842H14.762V12.291ZM14.762,8.606v1.842H12.927V8.606Z" transform="translate(-0.092 -0.369)"/></svg>