<svg xmlns="http://www.w3.org/2000/svg" width="380.359" height="163.236" viewBox="0 0 380.359 163.236"><defs><style>.a{fill:#292929;}.b{fill:#fbbd0e;}</style></defs><g transform="translate(-1901.841 974.514)"><g transform="translate(1915.591 -928.4)"><path class="a" d="M2008.511-824.5q0-15.877.006-31.754c.007-3.793,2.029-6.637,5.348-7.57a8.077,8.077,0,0,1,2.158-.248c13.3-.011,26.607-.076,39.91.019a31.422,31.422,0,0,1,31.276,27.524c1.144,9.145,1.508,18.448-.627,27.525a31.052,31.052,0,0,1-29,23.955c-13.812.414-27.643.261-41.465.245-4.654-.005-7.591-3.2-7.6-7.941C2008.494-803.326,2008.511-813.911,2008.511-824.5Zm14.778.027c0,7.769.017,15.538-.018,23.308-.005,1.167.279,1.645,1.571,1.638,10.33-.054,20.661.033,30.99-.062a17.082,17.082,0,0,0,17.154-16.957c.121-5.055.108-10.117.024-15.172-.172-10.449-7.573-17.707-18.047-17.739-9.965-.031-19.929.027-29.894-.045-1.515-.011-1.815.512-1.806,1.879C2023.316-839.9,2023.289-832.186,2023.29-824.469Z" transform="translate(-1977.69 864.119)"/><path class="a" d="M2652.192-817.612c4.852,0,9.705-.02,14.558.005a19.241,19.241,0,0,1,19.587,19.509q.051,10.326,0,20.651c-.066,9.686-6.441,17.518-15.723,19.318a24.33,24.33,0,0,1-4.511.387c-8.348.036-16.7.153-25.045-.02-8.636-.179-15.4-3.771-18.844-12.016-4.23-10.115.587-24.291,13.3-27.286a18.816,18.816,0,0,1,4.178-.49c8.4-.046,16.8,0,25.2-.057,1.358-.01,1.821.35,1.783,1.751-.094,3.491-.106,6.99,0,10.48.049,1.517-.526,1.81-1.9,1.8-7.931-.053-15.862-.035-23.793-.021-4.538.008-7.208,3.54-5.988,7.878a5.447,5.447,0,0,0,5.455,3.86c5.74.047,11.479.023,17.219.024,2.974,0,5.948.028,8.922-.016,3.4-.051,5.695-2.14,5.742-5.509q.149-10.4,0-20.807c-.043-3.29-2.467-5.471-5.811-5.478q-14.792-.03-29.585-.011c-2.116,0-2.12-.005-2.121-2.174,0-3.285.067-6.573-.031-9.855-.043-1.471.348-1.99,1.9-1.961C2641.859-817.555,2647.026-817.613,2652.192-817.612Z" transform="translate(-2334.109 837.075)"/><path class="a" d="M2309.275-817.643c4.75,0,9.507-.19,14.246.04,9.611.466,17.9,7.043,18.767,17.71.746,9.183-4.138,18.753-14.321,21.326a28.593,28.593,0,0,1-6.665.669c-7.568.078-15.135.034-22.7.028-2.118,0-2.12-.016-2.121-2.178,0-3.338.065-6.678-.031-10.014-.042-1.449.431-1.887,1.862-1.878q12.055.078,24.111.006c4.344-.025,6.923-3.6,5.727-7.785a5.346,5.346,0,0,0-5.067-3.944c-9.029-.048-18.058-.061-27.086.005-2.978.022-5.191,2.443-5.233,5.744q-.13,10.17,0,20.342c.039,3.459,2.273,5.633,5.772,5.662,7.984.064,15.97.028,23.955.037,2.169,0,2.171.008,2.173,2.128,0,3.443-.043,6.886.023,10.328.024,1.2-.323,1.679-1.571,1.674-8.193-.036-16.39.094-24.581-.053-9.214-.166-16.677-5.7-18.915-13.88a23.061,23.061,0,0,1-.8-5.7c-.095-6.832-.085-13.666-.028-20.5.08-9.452,6.077-17.272,14.85-19.253a31.115,31.115,0,0,1,6.212-.5c3.808-.074,7.619-.021,11.429-.021Z" transform="translate(-2133.854 837.115)"/><path class="a" d="M1934.786-824.712c0-12.514.028-25.029-.036-37.543-.008-1.546.46-1.927,1.94-1.886,3.7.1,7.408.071,11.111.013,1.177-.019,1.651.278,1.649,1.56q-.048,38.09,0,76.181c0,1.27-.459,1.626-1.643,1.612-3.755-.045-7.513-.06-11.268.007-1.34.024-1.79-.378-1.784-1.775C1934.808-799.265,1934.786-811.989,1934.786-824.712Z" transform="translate(-1934.751 864.144)"/><path class="a" d="M2226.365-695.006a7.221,7.221,0,0,1-7.264-7.236,7.48,7.48,0,0,1,7.286-7.328,7.514,7.514,0,0,1,7.273,7.351A7.254,7.254,0,0,1,2226.365-695.006Z" transform="translate(-2100.296 774.153)"/></g><g transform="translate(2127.104 -974.514)"><path class="b" d="M2480.051-812.573c-2.766,0-5.532.019-8.3-.006-3.168-.028-5.165-1.736-5.37-4.9-.7-10.866-6.234-19.264-13.581-26.715a39.835,39.835,0,0,1-10.989-20.184,38.936,38.936,0,0,1,32.717-46.448c12.618-1.746,23.62,1.858,32.83,10.714,2.316,2.228,2.463,5.1.467,7.219a4.8,4.8,0,0,1-7.233.165,30.1,30.1,0,0,0-15.167-7.951,28.894,28.894,0,0,0-34.125,26.153,28.443,28.443,0,0,0,8.531,22.985c7.132,7.263,12.756,15.419,15.432,25.371.906,3.37.878,3.391,4.327,3.37,1.4-.008,3.171.4,4.1-.284.9-.662.967-2.485,1.352-3.812a54.878,54.878,0,0,1,14.4-23.687c6.071-6.063,9.458-13.094,9.607-21.7a4.992,4.992,0,0,1,5.149-5,4.993,4.993,0,0,1,4.838,5.259A37.482,37.482,0,0,1,2507.8-844.7c-5.1,5.2-9.538,10.843-12.008,17.738a38.838,38.838,0,0,0-1.817,8.975c-.355,3.356-2.187,5.359-5.623,5.416-.1,0-.208,0-.312,0Z" transform="translate(-2440.991 937.685)"/><path class="b" d="M2522.713-796.761c0-1.977-.031-3.954.008-5.93a4.717,4.717,0,0,1,4.79-4.883,4.866,4.866,0,0,1,5.179,4.716c.1,4.055.095,8.116.007,12.171a5.1,5.1,0,0,1-5.095,4.895,4.936,4.936,0,0,1-4.881-5.038C2522.682-792.807,2522.713-794.785,2522.713-796.761Z" transform="translate(-2488.562 877.325)"/><path class="b" d="M2453.912-931.062a17.078,17.078,0,0,1-3.412-1.886c-2.134-1.9-4.106-3.992-6.1-6.045a5,5,0,0,1-.2-7.272,5.039,5.039,0,0,1,7.281.063c2.143,2.053,4.253,4.145,6.285,6.307a4.727,4.727,0,0,1,.962,5.626A5.567,5.567,0,0,1,2453.912-931.062Z" transform="translate(-2442.002 958.954)"/><path class="b" d="M2603.723-942.521a11.767,11.767,0,0,1-1.454,2.989c-2.165,2.385-4.419,4.7-6.8,6.875a4.932,4.932,0,0,1-7.132-.337,5.137,5.137,0,0,1,.361-7.053q3.114-3.176,6.292-6.291a4.841,4.841,0,0,1,5.482-1A5.463,5.463,0,0,1,2603.723-942.521Z" transform="translate(-2526.058 958.955)"/><path class="b" d="M2522.715-965.379c0-1.353-.025-2.707,0-4.06a5.015,5.015,0,0,1,4.7-5.07,4.99,4.99,0,0,1,5.255,4.708c.144,2.96.134,5.937.007,8.9a4.993,4.993,0,0,1-5.21,4.757,4.986,4.986,0,0,1-4.751-5.017C2522.688-962.567,2522.716-963.973,2522.715-965.379Z" transform="translate(-2488.564 974.514)"/><path class="b" d="M2522.692-844.232c0-3.334,1.864-5.342,4.947-5.338,3,0,5.058,2.162,5.073,5.324.016,3.25-2.059,5.536-5.042,5.593A5.034,5.034,0,0,1,2522.692-844.232Z" transform="translate(-2488.544 901.773)"/></g><g transform="translate(1901.841 -831.872)"><path class="a" d="M2610.624-617.884a17.112,17.112,0,0,1,3.848-1.833,5.188,5.188,0,0,1,6.174,4.726c.239,2.9.131,5.831.192,8.748.021.976-.5,1.248-1.375,1.227-.861-.021-1.192-.391-1.181-1.251.031-2.45.025-4.9,0-7.351-.025-2.466-1.236-3.849-3.326-3.859-2.183-.01-3.571,1.388-3.639,3.8-.062,2.188.013,4.38-.031,6.569-.018.883.469,2.123-1.238,2.086s-1.133-1.311-1.159-2.163c-.065-2.136.014-4.276-.035-6.412-.052-2.278-1.128-3.67-2.873-3.857a3.438,3.438,0,0,0-4.081,3.606c-.044,2.45-.037,4.9,0,7.351.012.922-.171,1.485-1.265,1.487-1.073,0-1.322-.538-1.318-1.466.019-3.91.007-7.821.009-11.731,0-.7.012-1.4,1.014-1.4.877,0,1.819-.1,1.6.941,1.449-.373,2.981-1.16,4.431-1.031S2609.216-618.521,2610.624-617.884Z" transform="translate(-2307.903 625.376)"/><path class="a" d="M2230.294-611.3a4.2,4.2,0,0,0,2.876,3.758c1.8.572,3.718.66,5.046-.968.944-1.157,1.942-1.137,3.34-.84a6.306,6.306,0,0,1-3.333,3.81,7.6,7.6,0,0,1-8.86-1.826,8.159,8.159,0,0,1-.373-9.616,7.317,7.317,0,0,1,8.537-2.434,7.27,7.27,0,0,1,4.54,6.551c.051,1.15-.333,1.6-1.5,1.578-2.815-.046-5.632-.013-8.448-.012Zm8.972-2.458c-.51-2.317-1.823-3.554-3.712-3.737-2.272-.22-4.038.648-4.83,2.36-.291.63-.508,1.329.489,1.354C2233.849-613.715,2236.487-613.759,2239.266-613.759Z" transform="translate(-2091.495 625.422)"/><path class="a" d="M2792.193-611.324h-11.457a4.174,4.174,0,0,0,2.759,3.742c1.788.632,3.716.747,5.061-.846a2.962,2.962,0,0,1,3.149-1c-.2,2.941-3.512,4.88-7.555,4.475-3.874-.387-6.559-4.2-6.054-8.606a7.112,7.112,0,0,1,8.391-6.239C2790.411-619.222,2792.888-615.682,2792.193-611.324Zm-2.516-2.534c-.681-2.737-2.377-3.869-5.066-3.637a3.854,3.854,0,0,0-3.68,3.637Z" transform="translate(-2411.951 625.415)"/><path class="a" d="M2665.657-611.3c.377,2.133,1.417,3.409,3.153,3.859,1.755.455,3.631.474,4.876-1.157.894-1.172,1.89-.994,3.195-.743a5.956,5.956,0,0,1-3.3,3.8,7.549,7.549,0,0,1-8.85-1.833,8.117,8.117,0,0,1-.458-9.483,7.291,7.291,0,0,1,8.477-2.614,7.285,7.285,0,0,1,4.706,6.594c.063,1.143-.313,1.607-1.484,1.589-2.815-.045-5.63-.013-8.446-.011Zm8.943-2.526c-.532-2.716-2.436-3.983-5.209-3.662a3.654,3.654,0,0,0-3.4,3.662Z" transform="translate(-2344.954 625.423)"/><path class="a" d="M2047.843-611.244c.461,2.128,1.489,3.43,3.222,3.866,1.813.455,3.634.376,5.012-1.263.844-1,1.107-1.026,3.087-.554a14.969,14.969,0,0,1-1.057,1.87,7.256,7.256,0,0,1-8.665,1.866,7.487,7.487,0,0,1-4.141-8.156c.677-3.642,3.13-5.99,6.45-6.176,3.666-.206,6.484,1.607,7.514,4.835,1.038,3.255.714,3.712-2.641,3.712Zm.18-2.535h8.755a3.938,3.938,0,0,0-3.958-3.684A4.215,4.215,0,0,0,2048.023-613.779Z" transform="translate(-1985.289 625.365)"/><path class="a" d="M2175.737-609.285a6.3,6.3,0,0,1-3.448,3.806,7.588,7.588,0,0,1-8.717-1.873,8.245,8.245,0,0,1-.476-9.493,7.276,7.276,0,0,1,8.464-2.636,7.222,7.222,0,0,1,4.675,7.059c-.058,1.1-.7,1.114-1.461,1.116-2.866.005-5.733-.01-8.6.02a7.71,7.71,0,0,0-1.465.3,5.858,5.858,0,0,0,.413,1.582,4.751,4.751,0,0,0,7.415.834C2173.616-609.7,2173.689-609.72,2175.737-609.285Zm-2.311-4.62c-.573-2.687-2.473-3.927-5.251-3.581a3.631,3.631,0,0,0-3.363,3.581Z" transform="translate(-2053.197 625.424)"/><path class="a" d="M1919.56-624.929c-1.224.294-2.129.382-2.928-.823-2.648-3.991-9.1-3.605-11.393.61a8.68,8.68,0,0,0,.68,9.012,6.954,6.954,0,0,0,7.537,1.995,6.662,6.662,0,0,0,3.033-2.267c.884-1.312,1.819-1.233,3.03-1.036-.644,3.881-4.713,6.344-9.726,6.014-4.191-.276-7.651-4.2-7.924-8.68-.4-6.578,3.477-10.22,8.022-10.831C1914.224-631.518,1918.6-628.873,1919.56-624.929Z" transform="translate(-1901.841 631.891)"/><path class="a" d="M2374.975-618.123c.117-1.786,1.256-1.545,2.7-1.245v2.262c0,3.44.015,6.881-.012,10.321-.005.706.346,1.672-.906,1.785-1.015.091-1.853-.04-1.573-1.76a6.747,6.747,0,0,1-6.8,1.667,8.114,8.114,0,0,1-3.627-2.493,7.971,7.971,0,0,1,.478-10.082C2367.662-620.272,2371.14-620.458,2374.975-618.123Zm-4.394.681c-2.92-.01-4.81,2-4.817,5.122-.007,3.146,1.849,5.151,4.772,5.157,2.845.005,4.7-1.967,4.739-5.034C2375.312-615.335,2373.434-617.434,2370.581-617.443Z" transform="translate(-2170.426 625.335)"/><path class="a" d="M2529.232-604.875c-4.291,0-7.271-3.08-7.242-7.486a7.1,7.1,0,0,1,7.19-7.43,7.084,7.084,0,0,1,7.312,7.456C2536.5-607.915,2533.541-604.875,2529.232-604.875Zm-4.642-7.425c0,3.167,1.733,5.1,4.592,5.115,2.961.02,4.725-1.906,4.715-5.15-.01-3.16-1.757-5.11-4.593-5.128C2526.351-617.482,2524.588-615.551,2524.589-612.3Z" transform="translate(-2262.884 625.356)"/><path class="a" d="M1969.5-612.24c-.016,4.5-2.854,7.379-7.275,7.366-4.316-.013-7.077-2.98-7.055-7.58.021-4.366,2.938-7.341,7.192-7.334C1966.644-619.782,1969.516-616.745,1969.5-612.24Zm-7.223,5.056c2.906.022,4.809-2.023,4.8-5.154-.013-3.048-1.894-5.107-4.681-5.124-2.884-.018-4.8,2.044-4.8,5.167C1957.594-609.241,1959.459-607.2,1962.277-607.184Z" transform="translate(-1932.889 625.355)"/><path class="a" d="M2454.77-609.714c1.677-.249,2.6-.417,3.272,1.067.851,1.881,4.846,2.2,6.26.691a1.562,1.562,0,0,0-.534-2.581,31.95,31.95,0,0,0-3.268-1.009,17.759,17.759,0,0,1-3.225-1.122,3.623,3.623,0,0,1-.367-6.127c2.046-1.558,6.469-1.526,8.382.212a14.433,14.433,0,0,1,1.857,2.748c-1.528.456-2.41.64-3.163-.664-.843-1.461-4.3-1.7-5.547-.542a1.43,1.43,0,0,0,.353,2.448,25.922,25.922,0,0,0,3.112.988,20.242,20.242,0,0,1,3.525,1.192,3.725,3.725,0,0,1,.52,6.178c-2.385,2.015-7.618,1.75-9.65-.595A15.2,15.2,0,0,1,2454.77-609.714Z" transform="translate(-2223.75 625.435)"/><path class="a" d="M2738.693-609.773c1.259-.185,2.188-.332,2.853,1.137.844,1.87,4.814,2.192,6.263.689a1.526,1.526,0,0,0-.521-2.568,31.042,31.042,0,0,0-3.267-1.022,17.737,17.737,0,0,1-3.359-1.2,3.6,3.6,0,0,1-.284-6.034c2.091-1.6,6.617-1.534,8.512.265a13.906,13.906,0,0,1,1.719,2.639c-1.495.527-2.4.676-3.181-.7s-4.228-1.594-5.442-.514a1.488,1.488,0,0,0,.311,2.482,22.846,22.846,0,0,0,3.105.994,31.531,31.531,0,0,1,3.263,1.034,3.331,3.331,0,0,1,2.162,3.17,3.669,3.669,0,0,1-2.037,3.607,8.255,8.255,0,0,1-7.806-.057A4.051,4.051,0,0,1,2738.693-609.773Z" transform="translate(-2389.046 625.429)"/><path class="a" d="M2415.072-617.936c3.872-2.721,7.842-2.089,9.539,1.387a8.26,8.26,0,0,1,.767,3.146c.114,2.339.016,4.687.05,7.031.014.937-.234,1.472-1.3,1.474s-1.333-.515-1.321-1.46q.043-3.438,0-6.876c-.035-2.728-1.353-4.146-3.783-4.13-2.452.016-3.923,1.553-3.965,4.213-.036,2.239-.024,4.48-.01,6.72.006.877-.131,1.517-1.248,1.534-1.172.018-1.362-.6-1.355-1.576.03-3.8.006-7.605.018-11.408,0-.7-.2-1.525.945-1.6C2414.42-619.554,2415.2-619.4,2415.072-617.936Z" transform="translate(-2199.106 625.261)"/><path class="a" d="M2002.337-619.423c1.257-.241,2.478-.749,2.513,1.452a5.985,5.985,0,0,1,5.835-1.723,5.73,5.73,0,0,1,4.392,5.417c.081,2.653.011,5.31.052,7.965.013.846-.271,1.244-1.152,1.255-.9.011-1.326-.288-1.3-1.265.048-2.186.021-4.373.01-6.56-.014-3.071-1.307-4.631-3.823-4.634-2.578,0-4.087,1.688-4.1,4.613-.01,2.239.048,4.48-.056,6.714a1.524,1.524,0,0,1-1.068,1.045c-.412.029-1.238-.528-1.243-.841C2002.311-610.453,2002.337-614.923,2002.337-619.423Z" transform="translate(-1960.346 625.413)"/><path class="a" d="M2103.765-609.694c-.583,3.236-3.683,5.114-7.735,4.779-3.472-.287-6.029-3.488-6.007-7.519.021-3.973,2.607-7.04,6.207-7.362,3.807-.34,6.991,1.661,7.535,4.813-1.008.237-2.027.6-2.737-.562-1.12-1.831-2.829-2.214-4.747-1.844a4.5,4.5,0,0,0-3.6,3.5c-1.045,3.684,1.378,6.926,5.118,6.622a4.252,4.252,0,0,0,2.779-1.392A2.662,2.662,0,0,1,2103.765-609.694Z" transform="translate(-2011.398 625.381)"/><path class="a" d="M2298.532-619.7c0-2.292-.034-4.584.016-6.875.022-1.022-.354-1.386-1.37-1.336-1.352.065-2.71-.016-4.064.02-.95.025-1.271-.547-1.068-1.277.122-.438.7-1.061,1.08-1.068q6.721-.111,13.444,0c.37.006.926.655,1.046,1.1.209.775-.2,1.263-1.11,1.24-1.354-.034-2.715.064-4.064-.025-1.21-.079-1.339.54-1.333,1.513.029,4.583,0,9.167.019,13.751,0,.878-.1,1.53-1.223,1.545-1.021.014-1.389-.423-1.376-1.405.03-2.4.01-4.792.01-7.188Z" transform="translate(-2128.98 631.47)"/><path class="a" d="M2501.743-633.058c.223,1.229.431,2.2-1.307,2.374-.609.062-1.365.92-1.631,1.583-.4,1-.073,1.828,1.315,1.759a2.589,2.589,0,0,1,1.584.364c.239.179.252.945.075,1.3a1.305,1.305,0,0,1-1.105.5c-1.751-.263-2.077.573-2.019,2.115.1,2.806.026,5.618.031,8.428,0,.958.121,1.914-1.354,1.889-1.384-.023-1.257-.928-1.257-1.823,0-3.07-.027-6.14.013-9.209.012-.964-.231-1.505-1.305-1.371-.8.1-1.259-.326-1.079-1.076.1-.421.6-1.049.933-1.058,1.2-.031,1.388-.624,1.508-1.664C2496.493-631.939,2498.527-633.416,2501.743-633.058Z" transform="translate(-2246.394 633.111)"/><path class="a" d="M2136.823-632.065a4.576,4.576,0,0,1,.878,1.374,7.682,7.682,0,0,1,.027,2.333c-.141,1.257.4,1.688,1.6,1.624a2.272,2.272,0,0,1,1.459.307,1.4,1.4,0,0,1,.146,1.287,1.43,1.43,0,0,1-1.059.58c-2.124.183-2.127.158-2.128,2.255,0,2.915-.029,5.831.015,8.745.014.978-.273,1.437-1.318,1.418s-1.152-.588-1.146-1.422c.024-3.123-.031-6.247.029-9.369.023-1.18-.276-1.79-1.572-1.612-.8.111-1.438-.038-1.428-1.105.009-.967.59-1.148,1.329-1.084,1.318.115,1.787-.472,1.663-1.738a7.5,7.5,0,0,1,.025-2.178,5.016,5.016,0,0,1,.817-1.4Z" transform="translate(-2036.025 632.502)"/><path class="a" d="M2571.819-617.839c1.166-.649,2.283-1.376,3.489-1.9.585-.254,1.522-.543,1.716.606.148.876.073,1.556-1.1,1.813a5.031,5.031,0,0,0-4.168,5.1c-.064,1.822-.043,3.647-.03,5.471.007.913-.054,1.647-1.285,1.654-1.187.007-1.347-.632-1.34-1.6.026-3.8.014-7.609.007-11.413,0-.815-.042-1.553,1.141-1.605,1.209-.053,1.589.485,1.487,1.583A.573.573,0,0,0,2571.819-617.839Z" transform="translate(-2290.312 625.459)"/><path class="a" d="M2338.666-617.615a34.4,34.4,0,0,1,3.667-1.906,1.65,1.65,0,0,1,1.478.688,1.158,1.158,0,0,1-.923,1.729c-2.874.711-4.179,2.371-4.295,5.31-.071,1.82-.049,3.644-.035,5.467.008.914-.222,1.482-1.3,1.48s-1.3-.519-1.295-1.463c.031-3.8.01-7.6.014-11.4,0-.813-.2-1.692,1.13-1.752,1.25-.057,1.536.556,1.472,1.607A.389.389,0,0,0,2338.666-617.615Z" transform="translate(-2154.579 625.215)"/><path class="a" d="M2712.634-607.85c.833,0,1.666.027,2.5-.007s1.253.214,1.263,1.132c.009.939-.343,1.309-1.285,1.284-1.664-.043-3.331-.054-4.993,0-1,.035-1.243-.435-1.246-1.314,0-.916.448-1.154,1.268-1.11S2711.8-607.851,2712.634-607.85Z" transform="translate(-2371.683 618.413)"/></g></g></svg>